<?xml version="1.0" encoding="UTF-8" standalone="no"?>
<!-- Created with Inkscape (http://www.inkscape.org/) -->

<svg
   xmlns:dc="http://purl.org/dc/elements/1.1/"
   xmlns:cc="http://creativecommons.org/ns#"
   xmlns:rdf="http://www.w3.org/1999/02/22-rdf-syntax-ns#"
   xmlns:svg="http://www.w3.org/2000/svg"
   xmlns="http://www.w3.org/2000/svg"
   xmlns:xlink="http://www.w3.org/1999/xlink"
   xmlns:sodipodi="http://sodipodi.sourceforge.net/DTD/sodipodi-0.dtd"
   xmlns:inkscape="http://www.inkscape.org/namespaces/inkscape"
   width="223.42043"
   height="102.55676"
   viewBox="0 0 223.42043 102.55676"
   id="svg5382"
   version="1.1"
   inkscape:version="0.91 r13725"
   sodipodi:docname="logo.svg">
  <defs
     id="defs5384">
    <linearGradient
       inkscape:collect="always"
       xlink:href="#linearGradient5107"
       id="linearGradient5113"
       x1="798.03223"
       y1="382.99249"
       x2="1056.5079"
       y2="382.99249"
       gradientUnits="userSpaceOnUse" />
    <linearGradient
       inkscape:collect="always"
       id="linearGradient5107">
      <stop
         style="stop-color:#66ff00;stop-opacity:1"
         offset="0"
         id="stop5109" />
      <stop
         style="stop-color:#66ffe7;stop-opacity:1"
         offset="1"
         id="stop5111" />
    </linearGradient>
    <linearGradient
       inkscape:collect="always"
       xlink:href="#linearGradient5107"
       id="linearGradient5115"
       gradientUnits="userSpaceOnUse"
       x1="798.03223"
       y1="382.99249"
       x2="1056.5079"
       y2="382.99249"
       gradientTransform="matrix(1.4665308,0,0,1.4665308,-4.224633,-499.20731)" />
    <linearGradient
       inkscape:collect="always"
       xlink:href="#linearGradient5107"
       id="linearGradient6041"
       gradientUnits="userSpaceOnUse"
       x1="798.03223"
       y1="382.99249"
       x2="1056.5079"
       y2="382.99249" />
    <linearGradient
       inkscape:collect="always"
       xlink:href="#linearGradient5107"
       id="linearGradient6043"
       gradientUnits="userSpaceOnUse"
       x1="798.03223"
       y1="382.99249"
       x2="1056.5079"
       y2="382.99249" />
    <linearGradient
       inkscape:collect="always"
       xlink:href="#linearGradient5107"
       id="linearGradient6045"
       gradientUnits="userSpaceOnUse"
       x1="798.03223"
       y1="382.99249"
       x2="1056.5079"
       y2="382.99249" />
    <linearGradient
       inkscape:collect="always"
       xlink:href="#linearGradient5107"
       id="linearGradient6047"
       gradientUnits="userSpaceOnUse"
       x1="798.03223"
       y1="382.99249"
       x2="1056.5079"
       y2="382.99249" />
    <linearGradient
       inkscape:collect="always"
       xlink:href="#linearGradient5107"
       id="linearGradient6049"
       gradientUnits="userSpaceOnUse"
       x1="798.03223"
       y1="382.99249"
       x2="1056.5079"
       y2="382.99249" />
    <linearGradient
       inkscape:collect="always"
       xlink:href="#linearGradient5107"
       id="linearGradient6051"
       gradientUnits="userSpaceOnUse"
       x1="798.03223"
       y1="382.99249"
       x2="1056.5079"
       y2="382.99249" />
    <linearGradient
       inkscape:collect="always"
       xlink:href="#linearGradient5107"
       id="linearGradient6053"
       gradientUnits="userSpaceOnUse"
       x1="798.03223"
       y1="382.99249"
       x2="1056.5079"
       y2="382.99249" />
    <linearGradient
       inkscape:collect="always"
       xlink:href="#linearGradient5107"
       id="linearGradient6055"
       gradientUnits="userSpaceOnUse"
       x1="798.03223"
       y1="382.99249"
       x2="1056.5079"
       y2="382.99249" />
    <linearGradient
       inkscape:collect="always"
       xlink:href="#linearGradient5107"
       id="linearGradient6057"
       gradientUnits="userSpaceOnUse"
       x1="798.03223"
       y1="382.99249"
       x2="1056.5079"
       y2="382.99249" />
    <linearGradient
       inkscape:collect="always"
       xlink:href="#linearGradient5107"
       id="linearGradient6059"
       gradientUnits="userSpaceOnUse"
       x1="798.03223"
       y1="382.99249"
       x2="1056.5079"
       y2="382.99249" />
    <linearGradient
       inkscape:collect="always"
       xlink:href="#linearGradient5107"
       id="linearGradient6061"
       gradientUnits="userSpaceOnUse"
       x1="798.03223"
       y1="382.99249"
       x2="1056.5079"
       y2="382.99249" />
  </defs>
  <sodipodi:namedview
     id="base"
     pagecolor="#ffffff"
     bordercolor="#666666"
     borderopacity="1.0"
     inkscape:pageopacity="0.0"
     inkscape:pageshadow="2"
     inkscape:zoom="0.76972656"
     inkscape:cx="67.080674"
     inkscape:cy="95.78485"
     inkscape:document-units="px"
     inkscape:current-layer="layer1"
     showgrid="false"
     fit-margin-top="0"
     fit-margin-left="0"
     fit-margin-right="0"
     fit-margin-bottom="0"
     inkscape:showpageshadow="false"
     units="px"
     inkscape:window-width="1317"
     inkscape:window-height="744"
     inkscape:window-x="49"
     inkscape:window-y="24"
     inkscape:window-maximized="1" />
  <metadata
     id="metadata5387">
    <rdf:RDF>
      <cc:Work
         rdf:about="">
        <dc:format>image/svg+xml</dc:format>
        <dc:type
           rdf:resource="http://purl.org/dc/dcmitype/StillImage" />
        <dc:title></dc:title>
      </cc:Work>
    </rdf:RDF>
  </metadata>
  <g
     inkscape:label="Layer 1"
     inkscape:groupmode="layer"
     id="layer1"
     transform="translate(-114.34409,-421.65728)">
    <g
       id="g4927"
       transform="matrix(0.87760159,0,0,0.87760159,-586.01025,134.47077)"
       style="display:inline;opacity:1;fill:url(#linearGradient5113);fill-opacity:1;enable-background:new">
      <g
         id="g5014"
         transform="translate(11.091757,-9.5072203)"
         style="fill:url(#linearGradient6061);fill-opacity:1">
        <g
           id="g5043"
           transform="translate(-8.9790414,-26.937124)"
           style="fill:url(#linearGradient6059);fill-opacity:1">
          <g
             transform="translate(-79.984803,-118.04986)"
             style="display:inline;opacity:1;fill:url(#linearGradient6043);fill-opacity:1"
             id="g6292">
            <path
               inkscape:connector-curvature="0"
               id="path6288"
               transform="translate(3.125e-6,4.6759108e-6)"
               d="m 912.98438,511.30859 a 37.079006,37.079006 0 0 0 -37.08008,37.07813 37.079006,37.079006 0 0 0 37.08008,37.07812 37.079006,37.079006 0 0 0 27.19531,-11.92578 l -5.2793,-8.13672 a 27.779003,27.779003 0 0 1 -21.91601,10.76368 27.779003,27.779003 0 0 1 -27.7793,-27.7793 27.779003,27.779003 0 0 1 27.7793,-27.7793 27.779003,27.779003 0 0 1 27.62109,25.08203 l 0.23828,0.43164 a 37.079006,37.079006 0 0 0 -0.0801,2.26563 37.079006,37.079006 0 0 0 37.07813,37.07812 37.079006,37.079006 0 0 0 26.89652,-11.58593 l -6.80082,-6.36133 a 27.779003,27.779003 0 0 1 -20.0957,8.64844 27.779003,27.779003 0 0 1 -27.7461,-26.87696 c -0.0194,-0.038 -0.0467,-0.0942 -0.0664,-0.13281 a 37.079006,37.079006 0 0 0 0.0332,-0.76953 37.079006,37.079006 0 0 0 -37.07812,-37.07813 z m 64.85742,0 a 37.079006,37.079006 0 0 0 -27.92188,12.75391 c 2.51631,3.14669 3.2725,4.10064 5.92774,7.41211 a 27.779003,27.779003 0 0 1 21.99414,-10.86719 27.779003,27.779003 0 0 1 27.7793,27.7793 27.779003,27.779003 0 0 1 -0.012,0.23828 l 0.025,0.043 a 37.079006,37.079006 0 0 0 37.0644,36.79687 37.079006,37.079006 0 0 0 37.0801,-37.07812 37.079006,37.079006 0 0 0 -37.0801,-37.07813 37.079006,37.079006 0 0 0 -27.4609,12.22852 l 5.5722,7.79883 a 27.779003,27.779003 0 0 1 21.8887,-10.72852 27.779003,27.779003 0 0 1 27.7793,27.7793 27.779003,27.779003 0 0 1 -27.7793,27.7793 27.779003,27.779003 0 0 1 -27.7793,-27.7793 27.779003,27.779003 0 0 1 0.1328,-2.64844 l -0.2949,-0.58203 a 37.079006,37.079006 0 0 0 -36.916,-33.84766 z"
               style="opacity:0.66926066;fill:url(#linearGradient6041);fill-opacity:1;stroke:none;stroke-opacity:1" />
          </g>
          <rect
             y="427.32874"
             x="826.24835"
             height="36.213112"
             width="75.594872"
             id="rect6408"
             style="opacity:0;fill:url(#linearGradient6045);fill-opacity:1;stroke:none;stroke-opacity:1" />
          <path
             style="opacity:0.53699999;fill:url(#linearGradient6047);fill-opacity:1;stroke:none;stroke-opacity:1"
             d="m 832.99958,363.68453 c -10.13708,-9.7e-4 -18.35536,8.21643 -18.35547,18.35351 0.002,4.16986 1.4237,8.21477 4.03125,11.46875 4.53613,-1.90218 9.4054,-2.8828 14.32422,-2.88476 4.90895,0.0125 9.76656,0.99973 14.29101,2.90429 2.62297,-3.25503 4.05616,-7.30795 4.0625,-11.48828 -1.1e-4,-10.13632 -8.21719,-18.35341 -18.35351,-18.35351 z"
             id="path4952"
             inkscape:connector-curvature="0" />
          <path
             style="opacity:0.53699999;fill:url(#linearGradient6049);fill-opacity:1;stroke:none;stroke-opacity:1"
             d="m 897.857,363.68453 c -10.13632,9e-5 -18.35341,8.21719 -18.35352,18.35351 0.009,3.859 1.23324,7.61713 3.5,10.74023 4.68042,-2.06551 9.73763,-3.14013 14.85352,-3.15624 5.11748,0.0168 10.17609,1.09277 14.85742,3.16015 2.26615,-3.12465 3.4895,-6.88423 3.49609,-10.74414 -1.1e-4,-10.13632 -8.21719,-18.35341 -18.35351,-18.35351 z"
             id="path4950"
             inkscape:connector-curvature="0" />
          <path
             style="opacity:0.53699999;fill:url(#linearGradient6051);fill-opacity:1;stroke:none;stroke-opacity:1"
             d="m 962.7164,363.68453 c -10.1371,-10e-4 -18.3554,8.21641 -18.3555,18.35351 0.01,3.85812 1.2324,7.61549 3.4981,10.73828 4.6811,-2.06509 9.739,-3.13905 14.8554,-3.15429 5.1187,0.0157 10.1786,1.09097 14.8613,3.1582 2.2651,-3.12434 3.4878,-6.88316 3.4942,-10.74219 -10e-5,-10.13631 -8.2172,-18.35341 -18.3535,-18.35351 z"
             id="path6483"
             inkscape:connector-curvature="0" />
          <text
             transform="scale(0.92198163,1.0846203)"
             sodipodi:linespacing="125%"
             id="text6853"
             y="442.88071"
             x="932.64447"
             style="font-style:normal;font-variant:normal;font-weight:bold;font-stretch:normal;font-size:12.20197868px;line-height:125%;font-family:'DejaVu Sans';-inkscape-font-specification:'DejaVu Sans Bold';letter-spacing:2.86339688px;word-spacing:0px;fill:url(#linearGradient5115);fill-opacity:1;stroke:none;stroke-width:1px;stroke-linecap:butt;stroke-linejoin:miter;stroke-opacity:1"
             xml:space="preserve"><tspan
               y="442.88071"
               x="932.64447"
               id="tspan6855"
               sodipodi:role="line"
               style="fill:url(#linearGradient5115);fill-opacity:1">RECRUITMENT AGENCY</tspan></text>
          <text
             xml:space="preserve"
             style="font-style:normal;font-weight:normal;font-size:40px;line-height:125%;font-family:sans-serif;letter-spacing:0px;word-spacing:0px;fill:url(#linearGradient6053);fill-opacity:1;stroke:none;stroke-width:1px;stroke-linecap:butt;stroke-linejoin:miter;stroke-opacity:1"
             x="820.69391"
             y="444.91696"
             id="text4944"
             sodipodi:linespacing="125%"><tspan
               style="font-style:normal;font-variant:normal;font-weight:normal;font-stretch:normal;font-size:45px;line-height:125%;font-family:'DejaVu Sans Mono';-inkscape-font-specification:'DejaVu Sans Mono, Normal';text-align:start;writing-mode:lr-tb;text-anchor:start;fill:url(#linearGradient6053);fill-opacity:1"
               sodipodi:role="line"
               id="tspan4946"
               x="820.69391"
               y="444.91696">F</tspan></text>
          <text
             xml:space="preserve"
             style="font-style:normal;font-weight:normal;font-size:40px;line-height:125%;font-family:sans-serif;letter-spacing:0px;word-spacing:0px;fill:url(#linearGradient6055);fill-opacity:1;stroke:none;stroke-width:1px;stroke-linecap:butt;stroke-linejoin:miter;stroke-opacity:1"
             x="884.9566"
             y="444.89743"
             id="text4954"
             sodipodi:linespacing="125%"><tspan
               sodipodi:role="line"
               id="tspan4956"
               x="884.9566"
               y="444.89743"
               style="fill:url(#linearGradient6055);fill-opacity:1">S</tspan></text>
          <text
             xml:space="preserve"
             style="font-style:normal;font-weight:normal;font-size:40px;line-height:125%;font-family:sans-serif;letter-spacing:0px;word-spacing:0px;fill:url(#linearGradient6057);fill-opacity:1;stroke:none;stroke-width:1px;stroke-linecap:butt;stroke-linejoin:miter;stroke-opacity:1"
             x="947.43219"
             y="444.91696"
             id="text4958"
             sodipodi:linespacing="125%"><tspan
               sodipodi:role="line"
               id="tspan4960"
               x="947.43219"
               y="444.91696"
               style="fill:url(#linearGradient6057);fill-opacity:1">R</tspan></text>
        </g>
      </g>
    </g>
  </g>
</svg>
